<?xml version="1.0" encoding="UTF-8"?><svg xmlns="http://www.w3.org/2000/svg" viewBox="0 0 16 16"><g id="a"><rect x="-937" y="-76" width="1064" height="462" style="fill:#fff;"/></g><g id="b"/><g id="c"/><g id="d"><rect x=".069" width="15.931" height="16" style="fill:none;"/><g><g><rect x="3" y="8" width="4" height="1.006" style="fill:#7e7e7e;"/><rect x="6" y="8" width="1" height="4" style="fill:#7e7e7e;"/><path d="M3.9,12.023c0,1.919,1.335,3.517,3.1,3.977v-1.074c-1.192-.426-2.075-1.559-2.075-2.903s.858-2.477,2.05-2.903v-1.074c-1.765,.46-3.075,2.058-3.075,3.977Z" style="fill:#7e7e7e;"/></g><g><rect x="9" y="14.994" width="4" height="1.006" style="fill:#7e7e7e;"/><rect x="9" y="12" width="1" height="4" style="fill:#7e7e7e;"/><path d="M12.075,11.977c0-1.919-1.31-3.517-3.075-3.977v1.074c1.192,.426,2.05,1.559,2.05,2.903s-.858,2.477-2.05,2.903v1.074c1.765-.46,3.075-2.058,3.075-3.977Z" style="fill:#7e7e7e;"/></g></g><path d="M13.94,6c.884-3.848-2.077-6-4.85-6-2.16,0-4.327,1.147-4.786,3.682-.36-.081-.7-.041-1.018-.041C-.463,3.641-1.142,8.783,2,9.919v-2.919h7.284c1.572,.412,2.797,1.571,3.401,3h2.105c2.097-1.053,1.249-4-.848-4Z" style="fill:#4997c7;"/></g></svg>